<?xml version="1.0" encoding="UTF-8" standalone="no"?> <svg xmlns:svg="http://www.w3.org/2000/svg" xmlns="http://www.w3.org/2000/svg" xmlns:xlink="http://www.w3.org/1999/xlink"  overflow="hidden" width="1840" height="917" id="_mapDiv__gc" style="touch-action: none; will-change: transform; overflow: visible; position: absolute; transform: translate(-40px, 113px);"><g id="sourceGraphic_layer" style="display: block;"><g></g></g><g id="downGrpLayer_layer" style="display: block;"><g></g></g><g id="lineGrpLayer_layer" style="display: block;"><g></g></g><g id="areaGrpLayer_layer" style="display: block;"><g></g></g><g id="lineGrpLayer_s_layer" style="display: block;"><g></g></g><g id="areaGrpLayer_s_layer" style="display: block;"><g></g></g><g id="tmpGrpLayer_layer" style="display: block;"><g></g></g><g id="symGrpLayer_layer" style="display: block;"><g></g></g><g id="moveGraphicLayer_layer" style="display: block;"><g></g></g><g id="moveCatGraphicLayer_layer" style="display: block;"><g><path fill="rgb(255, 0, 0)" fill-opacity="0.5" stroke="none" stroke-opacity="0" stroke-width="1" stroke-linecap="butt" stroke-linejoin="miter" stroke-miterlimit="4" path="M 971,272 964,271 964,271 963,271 963,271 963,271 963,272 963,272 963,272 962,273 962,273 962,273 962,274 962,274 962,277 961,284 961,285 961,285 960,286 960,286 960,286 960,287 960,287 960,287 960,287 959,287 959,288 958,288 958,288 958,289 958,289 957,289 957,289 957,290 957,290 957,290 957,291 957,291 957,291 957,292 957,292 957,292 957,293 957,293 957,293 958,294 958,294 958,294 958,295 958,295 958,295 958,295 958,295 958,296 958,296 957,297 957,297 957,297 957,297 956,298 956,298 956,298 956,299 956,299 956,299 956,299 955,299 955,300 954,300 954,300 954,300 954,301 954,301 954,301 954,302 954,302 954,302 954,303 954,303 954,303 954,303 955,303 955,303 955,303 956,304 956,304 957,304 960,304 961,305 961,305 961,305 962,305 962,305 962,305 963,305 963,306 963,306 963,306 963,306 963,307 963,307 963,307 963,308 963,308 963,308 963,309 963,309 963,310 963,310 963,311 963,312 962,313 962,313 962,313 962,314 962,314 962,314 962,315 962,315 962,315 963,315 963,316 963,316 963,316 964,317 964,317 964,317 965,317 965,317 965,318 965,318 965,318 965,319 965,320 965,320 965,320 965,321 965,321 966,321 966,322 966,322 966,322 966,323 967,323 967,323 967,324 967,324 967,324 967,325 967,325 967,325 967,325 967,326 967,326 966,327 966,327 965,329 965,330 964,331 964,331 964,331 964,332 964,332 964,332 964,333 964,333 964,333 964,334 964,335 964,335 964,335 964,336 964,336 964,336 964,337 964,337 964,337 964,337 963,338 963,338 962,339 962,339 962,339 962,340 962,340 962,340 962,341 961,341 961,342 961,342 960,345 960,346 960,347 960,347 960,347 960,348 960,348 960,348 960,349 960,349 960,350 960,350 960,351 960,351 961,351 961,351 961,352 960,352 960,352 960,352 960,353 960,353 959,353 959,353 959,353 959,353 958,354 958,354 958,354 957,354 957,354 957,354 956,354 956,354 956,354 947,354 947,354 946,354 946,354 945,354 945,354 945,354 944,355 944,355 944,355 944,355 944,355 943,356 943,356 943,356 943,357 942,357 942,357 942,357 942,357 941,357 941,357 941,357 940,356 938,355 937,355 937,355 937,355 937,355 936,355 936,354 936,354 935,354 935,354 935,354 934,354 931,354 930,354 929,354 929,354 929,354 929,354 928,354 928,355 928,355 928,355 927,355 927,355 927,356 927,356 926,356 926,357 925,357 925,358 925,358 925,359 924,359 924,359 924,359 924,360 924,360 924,360 924,361 923,362 923,362 922,362 922,362 922,362 921,363 921,363 920,364 920,364 920,364 919,364 919,364 919,364 918,364 918,364 918,364 918,364 917,364 917,364 916,364 911,363 911,363 911,362 911,362 911,362 911,360 911,359 911,358 911,358 911,358 911,357 911,357 911,357 911,356 910,356 910,356 910,356 910,355 910,355 910,355 910,354 910,354 911,352 911,351 911,351 911,351 911,350 911,350 911,350 911,350 910,350 910,349 910,349 910,349 909,349 909,349 908,349 908,349 907,349 907,349 907,349 906,349 906,349 906,349 906,349 906,348 905,348 905,348 905,347 904,347 904,346 904,346 904,346 903,346 903,345 903,345 902,345 902,345 902,345 902,344 902,344 902,344 902,343 902,343 902,342 901,341 901,341 901,340 901,340 901,340 901,340 901,339 900,339 900,339 900,339 899,339 899,338 899,338 899,338 898,338 898,338 898,337 898,337 899,337 899,337 899,336 899,336 899,335 899,335 899,335 899,334 899,334 899,334 899,333 898,333 898,333 898,333 898,332 898,332 898,332 898,331 898,331 898,330 898,330 898,330 898,330 897,329 897,329 897,329 897,329 896,329 896,329 895,329 895,329 895,329 895,329 894,329 894,329 894,328 894,328 893,328 893,328 893,328 893,327 893,327 892,327 892,326 892,326 892,326 892,325 892,325 892,324 892,321 892,320 892,319 892,319 892,319 892,318 892,318 892,318 892,317 892,317 892,317 891,316 891,316 891,316 891,316 891,315 891,315 891,314 891,314 890,314 888,307 888,307 888,307 888,307 889,306 889,306 889,306 889,306 889,305 890,305 890,304 890,304 890,304 891,304 891,303 891,303 891,303 891,302 891,302 892,300 892,300 892,299 892,299 892,299 892,298 892,298 892,298 892,297 892,297 892,297 892,296 891,296 891,296 891,295 890,295 890,294 890,294 890,294 890,293 890,293 890,293 889,292 889,292 889,292 889,291 889,291 889,291 889,290 890,290 890,290 890,290 891,289 891,289 891,289 891,289 891,288 891,288 891,288 891,288 892,287 892,286 892,286 892,286 892,285 892,285 892,285 893,285 893,285 893,285 894,285 894,285 895,285 895,285 895,285 895,285 895,284 895,284 895,284 895,284 895,283 895,283 895,283 895,282 895,282 895,282 895,281 895,281 895,281 895,281 895,281 895,280 895,280 895,280 895,280 895,279 895,279 895,278 895,278 895,278 895,277 895,276 895,273 895,273 895,272 895,272 895,272 895,271 895,271 895,271 895,270 895,270 895,270 896,270 896,270 896,270 896,269 897,269 897,269 897,269 897,268 898,268 898,267 898,267 899,266 899,266 899,266 899,266 899,265 899,265 899,265 899,264 899,264 899,263 899,263 899,263 899,261 899,261 899,260 899,260 899,260 899,259 899,259 899,259 899,259 900,258 900,258 900,258 900,258 901,258 901,257 903,256 903,256 904,255 904,255 904,255 904,255 905,254 905,254 905,254 905,253 905,253 905,253 905,252 905,251 905,251 905,251 905,250 905,250 905,250 905,249 905,249 905,249 905,248 906,247 906,247 906,247 906,246 907,246 907,246 907,245 907,245 907,245 907,244 907,244 907,244 907,243 907,243 907,243 907,242 907,242 906,242 906,242 906,241 906,241 906,241 906,240 906,240 906,240 906,240 906,239 906,239 906,238 906,238 906,238 906,237 906,237 905,237 905,236 905,236 905,235 904,234 904,234 904,233 904,233 904,233 904,232 904,232 904,231 904,231 904,231 903,230 903,230 903,230 903,230 903,229 903,229 902,229 902,228 902,228 902,228 901,228 901,227 901,227 901,227 901,226 901,226 901,226 901,225 901,225 901,225 901,224 902,224 902,224 902,224 902,223 902,223 903,223 903,222 903,222 904,222 904,222 904,222 904,221 904,221 904,221 903,220 903,220 903,220 903,219 903,219 903,218 903,218 903,218 903,218 903,217 903,217 903,217 902,217 902,216 902,216 902,216 901,215 901,215 901,215 900,215 900,214 900,214 900,214 899,214 899,214 899,214 898,214 898,214 897,214 896,214 896,214 896,214 895,214 895,214 895,213 895,213 895,213 894,213 894,212 894,212 893,212 893,212 893,212 893,212 892,212 892,212 891,212 891,212 891,212 891,212 890,212 890,212 890,212 890,212 890,212 890,211 890,211 891,211 891,210 891,210 892,207 892,206 892,205 893,205 893,205 893,204 893,204 893,204 893,203 893,203 893,203 893,201 893,201 893,200 893,200 893,200 893,199 894,199 894,199 894,199 894,198 894,198 895,198 895,197 895,197 895,197 896,197 896,196 896,196 896,196 897,196 897,196 897,196 898,196 898,196 899,196 899,196 899,196 900,196 900,196 900,196 900,196 901,196 901,196 901,196 901,196 902,196 902,195 902,195 902,195 902,195 902,194 902,194 902,194 902,194 901,193 901,193 901,193 901,192 901,192 901,192 901,192 900,191 900,191 900,190 900,190 900,188 900,188 900,187 900,187 900,187 900,186 900,186 900,186 900,185 899,185 899,185 899,184 899,184 899,184 899,183 899,183 899,183 899,182 899,182 899,181 899,178 899,177 899,177 899,176 899,176 899,175 899,175 899,175 899,175 899,175 899,174 898,174 898,174 897,174 897,174 897,174 896,173 896,173 896,173 896,173 895,172 895,172 895,172 895,172 895,171 894,171 894,171 894,170 894,170 894,170 894,169 894,169 894,169 893,169 893,169 893,169 893,169 892,169 891,168 891,168 891,168 891,168 890,168 890,168 890,167 890,167 889,166 889,166 888,166 888,166 888,166 888,165 887,165 887,165 887,165 886,165 884,164 884,163 883,163 883,163 883,163 882,163 882,163 882,162 882,162 882,162 882,161 882,161 882,161 882,160 882,160 882,159 882,158 882,158 882,158 882,157 882,157 882,157 882,156 882,156 882,156 882,156 882,155 882,155 882,154 882,154 882,154 882,153 882,153 882,153 882,153 883,152 883,152 883,152 883,152 883,152 884,152 885,151 885,151 885,151 886,151 886,151 886,151 887,150 887,150 887,150 887,150 887,149 888,149 888,148 888,148 889,147 889,146 889,146 889,145 889,145 890,145 890,144 890,144 890,144 890,143 890,143 890,143 890,142 890,141 890,138 890,137 890,136 890,136 890,136 890,135 890,135 890,135 889,134 889,134 888,133 888,132 888,132 887,132 887,131 887,131 887,131 887,130 887,130 887,129 886,129 886,129 886,128 886,128 886,128 886,127 886,127 886,126 886,126 886,126 886,125 887,122 888,122 888,122 889,122 889,122 890,122 890,122 891,122 892,122 892,121 893,121 893,121 893,121 894,121 894,121 895,121 896,121 897,121 897,121 898,121 898,121 899,121 899,120 900,120 900,120 900,119 901,119 901,119 902,119 902,118 903,118 903,118 904,118 905,118 905,118 905,117 905,117 905,117 905,117 906,117 906,118 906,118 906,119 906,119 907,120 907,120 907,121 908,121 908,121 908,122 909,122 910,122 910,122 910,123 911,124 911,125 912,125 912,125 912,125 912,125 913,126 914,127 914,127 915,128 915,129 915,130 915,130 916,131 916,131 917,131 917,132 918,133 918,134 918,134 918,135 919,135 919,136 919,137 919,139 919,139 920,139 920,140 921,140 921,140 922,140 924,140 924,140 924,140 924,140 924,140 924,141 924,141 925,142 925,142 926,142 926,143 926,144 927,145 927,146 928,147 928,147 928,147 928,147 928,147 929,147 929,147 930,147 930,148 930,148 930,148 930,149 930,150 930,152 931,153 931,155 931,156 931,157 931,158 931,159 932,160 933,161 933,162 933,163 933,164 933,165 933,166 933,166 933,167 933,167 933,168 932,168 932,168 932,168 932,169 932,169 932,170 932,171 932,171 933,172 933,174 933,175 933,177 934,178 934,178 934,178 934,178 935,178 935,178 936,179 936,179 937,179 938,180 938,181 939,182 939,183 939,184 940,187 940,187 940,188 940,189 940,190 940,191 939,192 939,193 938,195 938,196 938,197 938,198 938,199 939,199 939,200 940,200 940,201 940,201 940,201 939,202 939,203 939,204 939,205 939,206 940,207 940,208 940,208 941,208 941,208 942,208 943,208 944,208 944,209 944,209 944,209 944,209 945,210 946,211 946,211 947,212 947,212 947,213 947,213 947,214 947,215 947,216 946,218 946,218 946,219 947,219 947,219 947,220 948,221 948,221 949,222 950,223 951,223 952,224 953,226 953,227 954,228 954,229 954,229 955,231 955,231 955,232 955,232 955,233 955,234 955,235 955,236 955,237 955,238 955,239 955,240 956,243 957,245 957,245 957,246 957,249 958,250 958,251 959,253 959,254 960,254 961,256 962,257 963,258 963,259 964,260 964,261 965,261 966,260 966,260 967,261 967,261 968,261 968,261 969,261 969,262 969,262 970,262 970,262 970,262 970,263 970,263 970,264 971,265 971,265 970,266 970,266 970,267 970,268 970,269 970,269 970,271 971,272 971,272 971,272 Z" d="M 971 272 964 271 964 271 963 271 963 271 963 271 963 272 963 272 963 272 962 273 962 273 962 273 962 274 962 274 962 277 961 284 961 285 961 285 960 286 960 286 960 286 960 287 960 287 960 287 960 287 959 287 959 288 958 288 958 288 958 289 958 289 957 289 957 289 957 290 957 290 957 290 957 291 957 291 957 291 957 292 957 292 957 292 957 293 957 293 957 293 958 294 958 294 958 294 958 295 958 295 958 295 958 295 958 295 958 296 958 296 957 297 957 297 957 297 957 297 956 298 956 298 956 298 956 299 956 299 956 299 956 299 955 299 955 300 954 300 954 300 954 300 954 301 954 301 954 301 954 302 954 302 954 302 954 303 954 303 954 303 954 303 955 303 955 303 955 303 956 304 956 304 957 304 960 304 961 305 961 305 961 305 962 305 962 305 962 305 963 305 963 306 963 306 963 306 963 306 963 307 963 307 963 307 963 308 963 308 963 308 963 309 963 309 963 310 963 310 963 311 963 312 962 313 962 313 962 313 962 314 962 314 962 314 962 315 962 315 962 315 963 315 963 316 963 316 963 316 964 317 964 317 964 317 965 317 965 317 965 318 965 318 965 318 965 319 965 320 965 320 965 320 965 321 965 321 966 321 966 322 966 322 966 322 966 323 967 323 967 323 967 324 967 324 967 324 967 325 967 325 967 325 967 325 967 326 967 326 966 327 966 327 965 329 965 330 964 331 964 331 964 331 964 332 964 332 964 332 964 333 964 333 964 333 964 334 964 335 964 335 964 335 964 336 964 336 964 336 964 337 964 337 964 337 964 337 963 338 963 338 962 339 962 339 962 339 962 340 962 340 962 340 962 341 961 341 961 342 961 342 960 345 960 346 960 347 960 347 960 347 960 348 960 348 960 348 960 349 960 349 960 350 960 350 960 351 960 351 961 351 961 351 961 352 960 352 960 352 960 352 960 353 960 353 959 353 959 353 959 353 959 353 958 354 958 354 958 354 957 354 957 354 957 354 956 354 956 354 956 354 947 354 947 354 946 354 946 354 945 354 945 354 945 354 944 355 944 355 944 355 944 355 944 355 943 356 943 356 943 356 943 357 942 357 942 357 942 357 942 357 941 357 941 357 941 357 940 356 938 355 937 355 937 355 937 355 937 355 936 355 936 354 936 354 935 354 935 354 935 354 934 354 931 354 930 354 929 354 929 354 929 354 929 354 928 354 928 355 928 355 928 355 927 355 927 355 927 356 927 356 926 356 926 357 925 357 925 358 925 358 925 359 924 359 924 359 924 359 924 360 924 360 924 360 924 361 923 362 923 362 922 362 922 362 922 362 921 363 921 363 920 364 920 364 920 364 919 364 919 364 919 364 918 364 918 364 918 364 918 364 917 364 917 364 916 364 911 363 911 363 911 362 911 362 911 362 911 360 911 359 911 358 911 358 911 358 911 357 911 357 911 357 911 356 910 356 910 356 910 356 910 355 910 355 910 355 910 354 910 354 911 352 911 351 911 351 911 351 911 350 911 350 911 350 911 350 910 350 910 349 910 349 910 349 909 349 909 349 908 349 908 349 907 349 907 349 907 349 906 349 906 349 906 349 906 349 906 348 905 348 905 348 905 347 904 347 904 346 904 346 904 346 903 346 903 345 903 345 902 345 902 345 902 345 902 344 902 344 902 344 902 343 902 343 902 342 901 341 901 341 901 340 901 340 901 340 901 340 901 339 900 339 900 339 900 339 899 339 899 338 899 338 899 338 898 338 898 338 898 337 898 337 899 337 899 337 899 336 899 336 899 335 899 335 899 335 899 334 899 334 899 334 899 333 898 333 898 333 898 333 898 332 898 332 898 332 898 331 898 331 898 330 898 330 898 330 898 330 897 329 897 329 897 329 897 329 896 329 896 329 895 329 895 329 895 329 895 329 894 329 894 329 894 328 894 328 893 328 893 328 893 328 893 327 893 327 892 327 892 326 892 326 892 326 892 325 892 325 892 324 892 321 892 320 892 319 892 319 892 319 892 318 892 318 892 318 892 317 892 317 892 317 891 316 891 316 891 316 891 316 891 315 891 315 891 314 891 314 890 314 888 307 888 307 888 307 888 307 889 306 889 306 889 306 889 306 889 305 890 305 890 304 890 304 890 304 891 304 891 303 891 303 891 303 891 302 891 302 892 300 892 300 892 299 892 299 892 299 892 298 892 298 892 298 892 297 892 297 892 297 892 296 891 296 891 296 891 295 890 295 890 294 890 294 890 294 890 293 890 293 890 293 889 292 889 292 889 292 889 291 889 291 889 291 889 290 890 290 890 290 890 290 891 289 891 289 891 289 891 289 891 288 891 288 891 288 891 288 892 287 892 286 892 286 892 286 892 285 892 285 892 285 893 285 893 285 893 285 894 285 894 285 895 285 895 285 895 285 895 285 895 284 895 284 895 284 895 284 895 283 895 283 895 283 895 282 895 282 895 282 895 281 895 281 895 281 895 281 895 281 895 280 895 280 895 280 895 280 895 279 895 279 895 278 895 278 895 278 895 277 895 276 895 273 895 273 895 272 895 272 895 272 895 271 895 271 895 271 895 270 895 270 895 270 896 270 896 270 896 270 896 269 897 269 897 269 897 269 897 268 898 268 898 267 898 267 899 266 899 266 899 266 899 266 899 265 899 265 899 265 899 264 899 264 899 263 899 263 899 263 899 261 899 261 899 260 899 260 899 260 899 259 899 259 899 259 899 259 900 258 900 258 900 258 900 258 901 258 901 257 903 256 903 256 904 255 904 255 904 255 904 255 905 254 905 254 905 254 905 253 905 253 905 253 905 252 905 251 905 251 905 251 905 250 905 250 905 250 905 249 905 249 905 249 905 248 906 247 906 247 906 247 906 246 907 246 907 246 907 245 907 245 907 245 907 244 907 244 907 244 907 243 907 243 907 243 907 242 907 242 906 242 906 242 906 241 906 241 906 241 906 240 906 240 906 240 906 240 906 239 906 239 906 238 906 238 906 238 906 237 906 237 905 237 905 236 905 236 905 235 904 234 904 234 904 233 904 233 904 233 904 232 904 232 904 231 904 231 904 231 903 230 903 230 903 230 903 230 903 229 903 229 902 229 902 228 902 228 902 228 901 228 901 227 901 227 901 227 901 226 901 226 901 226 901 225 901 225 901 225 901 224 902 224 902 224 902 224 902 223 902 223 903 223 903 222 903 222 904 222 904 222 904 222 904 221 904 221 904 221 903 220 903 220 903 220 903 219 903 219 903 218 903 218 903 218 903 218 903 217 903 217 903 217 902 217 902 216 902 216 902 216 901 215 901 215 901 215 900 215 900 214 900 214 900 214 899 214 899 214 899 214 898 214 898 214 897 214 896 214 896 214 896 214 895 214 895 214 895 213 895 213 895 213 894 213 894 212 894 212 893 212 893 212 893 212 893 212 892 212 892 212 891 212 891 212 891 212 891 212 890 212 890 212 890 212 890 212 890 212 890 211 890 211 891 211 891 210 891 210 892 207 892 206 892 205 893 205 893 205 893 204 893 204 893 204 893 203 893 203 893 203 893 201 893 201 893 200 893 200 893 200 893 199 894 199 894 199 894 199 894 198 894 198 895 198 895 197 895 197 895 197 896 197 896 196 896 196 896 196 897 196 897 196 897 196 898 196 898 196 899 196 899 196 899 196 900 196 900 196 900 196 900 196 901 196 901 196 901 196 901 196 902 196 902 195 902 195 902 195 902 195 902 194 902 194 902 194 902 194 901 193 901 193 901 193 901 192 901 192 901 192 901 192 900 191 900 191 900 190 900 190 900 188 900 188 900 187 900 187 900 187 900 186 900 186 900 186 900 185 899 185 899 185 899 184 899 184 899 184 899 183 899 183 899 183 899 182 899 182 899 181 899 178 899 177 899 177 899 176 899 176 899 175 899 175 899 175 899 175 899 175 899 174 898 174 898 174 897 174 897 174 897 174 896 173 896 173 896 173 896 173 895 172 895 172 895 172 895 172 895 171 894 171 894 171 894 170 894 170 894 170 894 169 894 169 894 169 893 169 893 169 893 169 893 169 892 169 891 168 891 168 891 168 891 168 890 168 890 168 890 167 890 167 889 166 889 166 888 166 888 166 888 166 888 165 887 165 887 165 887 165 886 165 884 164 884 163 883 163 883 163 883 163 882 163 882 163 882 162 882 162 882 162 882 161 882 161 882 161 882 160 882 160 882 159 882 158 882 158 882 158 882 157 882 157 882 157 882 156 882 156 882 156 882 156 882 155 882 155 882 154 882 154 882 154 882 153 882 153 882 153 882 153 883 152 883 152 883 152 883 152 883 152 884 152 885 151 885 151 885 151 886 151 886 151 886 151 887 150 887 150 887 150 887 150 887 149 888 149 888 148 888 148 889 147 889 146 889 146 889 145 889 145 890 145 890 144 890 144 890 144 890 143 890 143 890 143 890 142 890 141 890 138 890 137 890 136 890 136 890 136 890 135 890 135 890 135 889 134 889 134 888 133 888 132 888 132 887 132 887 131 887 131 887 131 887 130 887 130 887 129 886 129 886 129 886 128 886 128 886 128 886 127 886 127 886 126 886 126 886 126 886 125 887 122 888 122 888 122 889 122 889 122 890 122 890 122 891 122 892 122 892 121 893 121 893 121 893 121 894 121 894 121 895 121 896 121 897 121 897 121 898 121 898 121 899 121 899 120 900 120 900 120 900 119 901 119 901 119 902 119 902 118 903 118 903 118 904 118 905 118 905 118 905 117 905 117 905 117 905 117 906 117 906 118 906 118 906 119 906 119 907 120 907 120 907 121 908 121 908 121 908 122 909 122 910 122 910 122 910 123 911 124 911 125 912 125 912 125 912 125 912 125 913 126 914 127 914 127 915 128 915 129 915 130 915 130 916 131 916 131 917 131 917 132 918 133 918 134 918 134 918 135 919 135 919 136 919 137 919 139 919 139 920 139 920 140 921 140 921 140 922 140 924 140 924 140 924 140 924 140 924 140 924 141 924 141 925 142 925 142 926 142 926 143 926 144 927 145 927 146 928 147 928 147 928 147 928 147 928 147 929 147 929 147 930 147 930 148 930 148 930 148 930 149 930 150 930 152 931 153 931 155 931 156 931 157 931 158 931 159 932 160 933 161 933 162 933 163 933 164 933 165 933 166 933 166 933 167 933 167 933 168 932 168 932 168 932 168 932 169 932 169 932 170 932 171 932 171 933 172 933 174 933 175 933 177 934 178 934 178 934 178 934 178 935 178 935 178 936 179 936 179 937 179 938 180 938 181 939 182 939 183 939 184 940 187 940 187 940 188 940 189 940 190 940 191 939 192 939 193 938 195 938 196 938 197 938 198 938 199 939 199 939 200 940 200 940 201 940 201 940 201 939 202 939 203 939 204 939 205 939 206 940 207 940 208 940 208 941 208 941 208 942 208 943 208 944 208 944 209 944 209 944 209 944 209 945 210 946 211 946 211 947 212 947 212 947 213 947 213 947 214 947 215 947 216 946 218 946 218 946 219 947 219 947 219 947 220 948 221 948 221 949 222 950 223 951 223 952 224 953 226 953 227 954 228 954 229 954 229 955 231 955 231 955 232 955 232 955 233 955 234 955 235 955 236 955 237 955 238 955 239 955 240 956 243 957 245 957 245 957 246 957 249 958 250 958 251 959 253 959 254 960 254 961 256 962 257 963 258 963 259 964 260 964 261 965 261 966 260 966 260 967 261 967 261 968 261 968 261 969 261 969 262 969 262 970 262 970 262 970 262 970 263 970 263 970 264 971 265 971 265 970 266 970 266 970 267 970 268 970 269 970 269 970 271 971 272 971 272 971 272Z" fill-rule="evenodd"></path></g></g><g id="moveRchGraphicLayer_layer" style="display: block;"><g></g><path fill="none" fill-opacity="0" stroke="rgb(0, 0, 0)" stroke-opacity="1" stroke-width="5" stroke-linecap="butt" stroke-linejoin="miter" stroke-miterlimit="4" path="M 888,307 888,308 890,308 890,308 891,308 891,308 891,308 892,308 892,308 893,308 893,308 894,309 894,309 894,309 897,310 897,310 897,310 898,310 898,310 899,310 899,311 900,311 900,311 903,313 903,313 903,313 904,313 904,313 905,314 905,314 907,315 907,315 907,315 908,317 908,317 910,318 910,318 912,320 912,320 912,321 912,321 913,321 914,322 914,322 915,323 915,323 919,326 919,326 920,327 920,327 921,328 921,328 923,329 930,334 930,334 930,334 931,334 931,335 931,335 931,335 932,335 932,335 932,336 933,336 933,336 933,336 934,336 934,337 935,337 935,337 937,338 937,338 937,338 938,338 939,338 939,338 940,339 940,339 941,339 941,339 941,339 941,340 942,340 942,340 942,340 943,340 943,341 943,341 944,342 946,343 946,343 946,343 948,344 948,344 949,345 950,345 950,345 950,345 951,346 952,346 954,347 954,347 955,347 955,347 955,347 956,347 958,347 958,347 958,346 958,346 960,346" d="M 888 307 888 308 890 308 890 308 891 308 891 308 891 308 892 308 892 308 893 308 893 308 894 309 894 309 894 309 897 310 897 310 897 310 898 310 898 310 899 310 899 311 900 311 900 311 903 313 903 313 903 313 904 313 904 313 905 314 905 314 907 315 907 315 907 315 908 317 908 317 910 318 910 318 912 320 912 320 912 321 912 321 913 321 914 322 914 322 915 323 915 323 919 326 919 326 920 327 920 327 921 328 921 328 923 329 930 334 930 334 930 334 931 334 931 335 931 335 931 335 932 335 932 335 932 336 933 336 933 336 933 336 934 336 934 337 935 337 935 337 937 338 937 338 937 338 938 338 939 338 939 338 940 339 940 339 941 339 941 339 941 339 941 340 942 340 942 340 942 340 943 340 943 341 943 341 944 342 946 343 946 343 946 343 948 344 948 344 949 345 950 345 950 345 950 345 951 346 952 346 954 347 954 347 955 347 955 347 955 347 956 347 958 347 958 347 958 346 958 346 960 346" stroke-dasharray="none" dojoGfxStrokeStyle="solid"></path></g><g id="movePopGraphicLayer_layer" style="display: block;"><g></g></g><defs></defs><g id="_mapDiv__graphics_layer" style="display: block;"><g></g></g></svg>