<?xml version="1.0" encoding="UTF-8" standalone="no"?> <svg xmlns:svg="http://www.w3.org/2000/svg" xmlns="http://www.w3.org/2000/svg" xmlns:xlink="http://www.w3.org/1999/xlink"  overflow="hidden" width="1840" height="917" id="_mapDiv__gc" style="touch-action: none; will-change: transform; overflow: visible; position: absolute; transform: translate(17px, 41px);"><g id="sourceGraphic_layer" style="display: block;"><g></g></g><g id="downGrpLayer_layer" style="display: block;"><g></g></g><g id="lineGrpLayer_layer" style="display: block;"><g></g></g><g id="areaGrpLayer_layer" style="display: block;"><g></g></g><g id="lineGrpLayer_s_layer" style="display: block;"><g></g></g><g id="areaGrpLayer_s_layer" style="display: block;"><g></g></g><g id="tmpGrpLayer_layer" style="display: block;"><g></g></g><g id="symGrpLayer_layer" style="display: block;"><g></g></g><g id="moveGraphicLayer_layer" style="display: block;"><g></g></g><g id="moveCatGraphicLayer_layer" style="display: block;"><g><path fill="rgb(255, 0, 0)" fill-opacity="0.5" stroke="none" stroke-opacity="0" stroke-width="1" stroke-linecap="butt" stroke-linejoin="miter" stroke-miterlimit="4" path="M 954,376 955,378 956,378 956,378 956,379 956,379 956,380 957,381 957,382 957,382 957,382 958,383 958,383 958,383 958,383 959,383 959,384 959,384 960,384 960,384 960,384 961,385 961,385 961,385 961,385 961,386 961,386 961,386 961,386 961,387 961,387 961,387 960,387 960,387 960,388 960,388 959,388 959,388 959,389 959,389 959,389 959,389 959,390 959,390 959,390 959,391 959,391 959,392 959,392 959,392 959,393 959,393 959,393 959,394 960,394 960,394 960,394 960,394 961,395 961,395 961,395 961,395 961,395 961,396 962,396 962,396 962,396 962,397 962,397 962,397 962,398 962,398 962,398 961,399 961,399 961,399 961,399 961,400 960,400 960,401 959,401 959,401 959,401 959,402 959,402 959,402 959,403 959,403 959,403 959,404 959,404 959,405 959,406 959,406 959,406 959,407 960,407 960,407 960,408 960,408 960,408 960,409 960,409 961,409 961,409 961,410 960,410 960,410 960,411 960,411 960,411 960,412 960,412 960,412 960,413 960,413 960,413 960,414 960,414 960,414 960,415 960,415 960,415 961,415 961,415 961,416 962,416 962,416 964,418 965,418 965,418 965,419 966,419 966,419 966,419 966,419 966,420 966,420 966,420 966,421 966,421 966,421 966,423 966,423 966,423 966,424 966,424 966,424 966,425 967,425 967,425 967,425 968,426 968,426 968,426 968,427 968,427 968,427 968,428 968,428 968,429 969,429 969,429 969,429 969,429 970,430 970,430 970,430 970,430 970,431 971,431 971,432 971,432 972,432 972,432 972,432 972,432 972,432 973,432 973,432 973,432 974,432 974,432 975,432 975,432 975,432 976,432 976,432 976,432 976,432 976,432 976,432 976,432 976,432 977,432 977,432 977,433 978,433 978,433 978,433 978,433 978,433 979,434 979,434 979,434 979,435 979,435 979,435 979,436 979,436 979,436 979,437 979,437 979,437 979,437 979,437 979,437 978,438 978,438 978,438 977,439 977,439 977,439 977,439 977,440 977,440 977,440 977,441 977,441 977,442 977,442 977,443 977,443 977,443 977,443 977,444 977,444 977,445 977,446 977,447 977,448 977,448 977,449 977,449 977,449 976,450 976,450 976,450 976,451 976,451 975,451 975,452 975,452 975,452 975,452 975,453 975,453 975,454 975,454 974,455 974,456 974,456 974,456 974,457 974,457 974,457 974,457 973,458 973,458 973,458 973,458 972,458 971,458 971,458 970,458 970,459 970,459 970,459 969,459 969,459 969,459 969,460 969,460 969,460 968,462 968,462 968,462 968,463 968,463 967,463 967,463 967,464 967,464 966,464 966,464 966,464 965,464 964,464 964,464 964,465 963,465 963,465 963,465 963,465 962,465 962,466 962,466 962,466 961,466 961,467 961,467 961,467 960,467 960,467 960,467 959,467 959,467 959,467 958,467 958,467 958,467 958,466 957,466 957,466 957,466 956,466 956,466 954,465 954,464 953,464 953,464 953,464 952,464 952,464 952,464 952,464 951,464 951,464 951,464 951,464 950,465 950,465 950,465 950,465 950,465 950,466 950,466 949,466 949,466 949,466 949,466 948,466 948,466 948,466 948,466 947,466 944,466 943,466 943,466 942,466 942,466 942,466 942,466 941,466 941,466 941,466 941,466 940,467 940,467 940,467 940,467 940,467 939,467 939,467 939,467 939,467 939,467 939,467 939,467 939,467 938,466 938,466 938,466 938,465 938,465 937,465 937,465 937,465 937,464 936,464 936,464 936,464 936,464 935,464 935,464 935,464 935,464 934,464 934,464 934,464 933,464 933,464 933,464 933,464 933,464 933,464 932,464 932,463 932,463 932,463 931,463 931,462 931,462 931,462 930,462 930,462 929,461 929,461 929,461 928,461 928,461 928,461 928,461 927,461 927,461 927,461 927,461 927,461 926,461 926,462 926,462 925,462 925,463 925,463 924,463 924,463 924,463 924,463 923,464 923,464 923,464 922,464 922,464 922,464 922,464 922,464 922,464 921,465 921,465 921,465 921,465 921,466 921,466 920,466 920,466 920,466 919,466 919,466 919,467 919,467 918,467 918,467 918,467 918,468 918,468 917,468 917,468 917,469 917,469 916,469 916,469 916,469 915,469 915,469 915,469 915,469 915,469 914,469 914,469 914,469 910,470 909,470 908,470 908,470 908,471 908,471 907,471 907,471 907,471 906,471 906,472 906,472 906,472 905,473 904,474 904,474 904,474 904,475 904,475 903,475 903,475 903,475 903,475 903,475 903,475 903,475 902,474 902,473 902,473 902,473 902,473 901,472 901,472 901,471 900,471 900,471 900,471 900,471 900,470 899,470 899,470 899,469 899,469 899,468 899,466 898,465 898,465 898,465 898,464 898,464 898,464 898,464 897,464 897,463 896,463 896,463 896,463 896,462 896,462 896,462 895,461 895,461 895,460 895,460 895,459 895,459 894,459 894,459 894,459 894,458 894,458 893,458 892,458 892,458 892,458 892,457 891,457 891,457 891,457 891,456 891,456 891,456 890,455 890,454 890,454 889,454 889,453 889,453 889,453 889,453 888,453 888,453 888,453 888,453 888,453 887,453 887,453 887,453 887,454 886,454 886,454 886,454 885,455 884,456 884,456 884,457 883,457 883,457 883,457 883,457 882,457 882,457 882,457 881,458 881,457 881,457 880,457 876,457 875,457 874,457 874,457 874,457 873,457 873,457 873,457 873,457 872,457 872,457 872,457 872,457 872,457 871,457 871,458 871,458 870,458 870,458 869,458 869,458 869,458 868,458 868,458 868,458 868,458 867,458 867,459 867,459 867,459 866,459 866,459 866,460 865,460 865,460 865,460 864,460 863,460 861,460 860,460 860,460 860,460 859,460 859,460 859,460 858,460 858,460 858,460 858,461 858,461 857,461 857,462 857,462 856,463 856,463 856,463 856,463 856,463 855,464 855,464 855,464 854,464 854,464 854,464 854,465 853,465 853,466 852,466 852,466 852,466 852,466 851,466 851,467 851,467 850,467 850,467 850,467 850,467 849,467 849,468 849,468 849,468 848,468 848,468 848,468 848,468 848,467 847,467 847,466 846,466 846,466 846,466 846,466 845,465 844,465 844,465 844,465 844,465 843,465 843,464 843,464 843,464 843,463 843,463 842,462 842,462 842,462 842,461 842,461 842,461 841,461 841,461 841,460 841,460 840,460 839,460 839,460 839,460 839,459 838,459 838,459 838,459 838,458 838,458 838,457 837,457 837,457 837,456 837,456 837,456 837,456 836,456 836,456 836,456 835,456 835,456 834,456 834,456 833,456 833,456 833,456 832,455 832,455 832,455 832,455 831,455 830,455 828,451 828,449 828,449 827,448 827,447 827,446 828,445 828,445 829,445 830,444 830,443 830,442 831,441 831,440 830,439 830,437 829,436 829,433 830,431 830,430 831,430 831,428 830,426 830,424 830,423 830,423 830,423 830,423 831,423 831,422 831,422 831,422 832,422 832,421 832,421 832,421 833,421 833,421 833,421 833,421 834,421 834,420 834,421 834,421 835,421 835,421 835,421 836,421 836,421 836,421 836,421 836,422 837,422 837,423 837,423 837,423 837,423 838,423 838,423 838,423 839,423 839,423 840,424 840,424 840,424 841,424 841,424 841,424 842,424 842,424 842,424 842,425 843,425 843,425 844,426 844,426 844,427 845,427 845,427 845,427 845,427 846,427 846,427 846,427 846,427 846,427 847,427 847,427 847,427 847,426 847,426 847,426 848,426 848,426 848,426 848,426 849,426 849,426 849,426 851,426 851,426 851,426 852,426 852,426 852,426 853,426 853,426 853,426 853,426 854,426 854,425 855,425 855,424 855,424 855,424 856,424 856,424 856,424 857,424 857,424 857,424 857,424 858,424 859,424 859,424 859,424 860,423 860,423 860,423 860,423 860,423 861,423 861,423 861,422 861,422 861,422 861,421 861,421 861,421 862,420 862,420 862,420 862,419 863,419 863,419 863,419 863,418 864,418 864,418 864,418 864,418 865,417 865,417 865,417 866,417 867,417 867,417 867,417 867,417 868,416 868,416 868,416 868,416 868,415 868,415 868,415 868,414 869,414 869,412 869,411 869,411 869,410 869,410 869,410 870,409 870,409 870,409 870,408 870,408 871,408 871,407 871,407 871,407 871,407 871,406 871,406 871,405 872,405 872,405 872,405 872,404 872,404 873,404 873,404 873,403 873,403 874,403 874,403 874,402 874,402 874,402 874,401 874,401 874,399 874,399 874,398 874,398 874,398 875,397 875,397 875,397 875,397 875,397 875,397 875,397 875,396 876,396 876,396 876,396 876,395 876,395 876,395 876,395 877,394 877,394 877,394 877,393 877,393 877,393 877,392 878,392 878,392 878,392 878,392 878,392 879,391 879,391 879,391 879,391 880,391 880,391 880,391 880,391 881,391 881,391 881,391 882,391 883,391 884,391 884,391 884,391 884,391 885,391 885,391 885,391 886,391 886,391 886,391 887,391 887,391 887,391 887,391 888,391 888,390 888,390 888,390 888,390 888,389 888,389 888,388 888,388 888,388 888,387 888,387 889,387 889,386 889,386 889,386 889,386 890,386 890,385 891,385 891,385 891,384 891,384 891,384 892,384 892,383 892,383 892,382 892,382 892,381 892,381 893,381 893,381 893,380 893,380 894,380 894,380 894,380 895,380 898,380 899,380 899,380 900,380 900,380 900,380 900,380 901,380 901,380 901,380 901,380 901,381 901,381 902,381 902,381 902,381 902,381 902,381 903,381 903,381 903,381 904,381 904,381 904,381 904,381 904,380 905,380 905,380 905,380 905,379 905,379 905,379 905,378 905,378 906,378 906,377 906,376 906,376 906,376 906,375 906,375 906,375 907,375 907,375 907,374 907,374 908,374 908,374 908,374 908,373 909,373 909,373 909,373 909,373 909,372 909,372 910,372 910,372 910,371 910,371 910,371 910,370 910,370 910,369 910,369 911,366 911,365 911,363 916,364 917,364 917,364 918,364 918,364 918,364 918,364 919,364 919,364 919,364 920,364 920,364 920,364 921,363 921,363 922,362 922,362 922,362 923,362 923,362 923,363 923,364 924,364 924,364 924,365 924,365 925,366 925,367 925,367 926,367 926,367 926,368 926,368 927,368 927,369 927,369 927,369 927,370 927,370 927,370 928,370 928,370 928,370 928,370 929,370 929,370 929,370 931,369 931,369 932,369 932,369 933,369 933,368 933,368 933,368 934,368 934,368 934,367 935,367 935,366 935,366 936,366 936,366 936,366 936,366 936,366 936,366 936,367 937,367 937,367 937,368 937,368 937,368 937,368 938,368 938,368 938,369 939,369 939,369 940,369 941,369 941,369 942,369 942,369 942,369 942,370 943,370 943,370 943,370 943,370 943,371 944,371 944,371 944,371 944,372 944,372 944,372 944,373 944,374 944,374 944,374 944,375 945,375 945,375 945,375 945,376 945,376 946,376 946,377 946,377 946,377 946,377 947,377 947,378 947,378 947,378 947,378 948,378 948,377 948,377 948,377 949,377 949,377 949,377 949,377 950,377 950,377 951,377 951,377 951,377 952,377 952,377 952,377 953,377 953,377 954,376 954,376 Z" d="M 954 376 955 378 956 378 956 378 956 379 956 379 956 380 957 381 957 382 957 382 957 382 958 383 958 383 958 383 958 383 959 383 959 384 959 384 960 384 960 384 960 384 961 385 961 385 961 385 961 385 961 386 961 386 961 386 961 386 961 387 961 387 961 387 960 387 960 387 960 388 960 388 959 388 959 388 959 389 959 389 959 389 959 389 959 390 959 390 959 390 959 391 959 391 959 392 959 392 959 392 959 393 959 393 959 393 959 394 960 394 960 394 960 394 960 394 961 395 961 395 961 395 961 395 961 395 961 396 962 396 962 396 962 396 962 397 962 397 962 397 962 398 962 398 962 398 961 399 961 399 961 399 961 399 961 400 960 400 960 401 959 401 959 401 959 401 959 402 959 402 959 402 959 403 959 403 959 403 959 404 959 404 959 405 959 406 959 406 959 406 959 407 960 407 960 407 960 408 960 408 960 408 960 409 960 409 961 409 961 409 961 410 960 410 960 410 960 411 960 411 960 411 960 412 960 412 960 412 960 413 960 413 960 413 960 414 960 414 960 414 960 415 960 415 960 415 961 415 961 415 961 416 962 416 962 416 964 418 965 418 965 418 965 419 966 419 966 419 966 419 966 419 966 420 966 420 966 420 966 421 966 421 966 421 966 423 966 423 966 423 966 424 966 424 966 424 966 425 967 425 967 425 967 425 968 426 968 426 968 426 968 427 968 427 968 427 968 428 968 428 968 429 969 429 969 429 969 429 969 429 970 430 970 430 970 430 970 430 970 431 971 431 971 432 971 432 972 432 972 432 972 432 972 432 972 432 973 432 973 432 973 432 974 432 974 432 975 432 975 432 975 432 976 432 976 432 976 432 976 432 976 432 976 432 976 432 976 432 977 432 977 432 977 433 978 433 978 433 978 433 978 433 978 433 979 434 979 434 979 434 979 435 979 435 979 435 979 436 979 436 979 436 979 437 979 437 979 437 979 437 979 437 979 437 978 438 978 438 978 438 977 439 977 439 977 439 977 439 977 440 977 440 977 440 977 441 977 441 977 442 977 442 977 443 977 443 977 443 977 443 977 444 977 444 977 445 977 446 977 447 977 448 977 448 977 449 977 449 977 449 976 450 976 450 976 450 976 451 976 451 975 451 975 452 975 452 975 452 975 452 975 453 975 453 975 454 975 454 974 455 974 456 974 456 974 456 974 457 974 457 974 457 974 457 973 458 973 458 973 458 973 458 972 458 971 458 971 458 970 458 970 459 970 459 970 459 969 459 969 459 969 459 969 460 969 460 969 460 968 462 968 462 968 462 968 463 968 463 967 463 967 463 967 464 967 464 966 464 966 464 966 464 965 464 964 464 964 464 964 465 963 465 963 465 963 465 963 465 962 465 962 466 962 466 962 466 961 466 961 467 961 467 961 467 960 467 960 467 960 467 959 467 959 467 959 467 958 467 958 467 958 467 958 466 957 466 957 466 957 466 956 466 956 466 954 465 954 464 953 464 953 464 953 464 952 464 952 464 952 464 952 464 951 464 951 464 951 464 951 464 950 465 950 465 950 465 950 465 950 465 950 466 950 466 949 466 949 466 949 466 949 466 948 466 948 466 948 466 948 466 947 466 944 466 943 466 943 466 942 466 942 466 942 466 942 466 941 466 941 466 941 466 941 466 940 467 940 467 940 467 940 467 940 467 939 467 939 467 939 467 939 467 939 467 939 467 939 467 939 467 938 466 938 466 938 466 938 465 938 465 937 465 937 465 937 465 937 464 936 464 936 464 936 464 936 464 935 464 935 464 935 464 935 464 934 464 934 464 934 464 933 464 933 464 933 464 933 464 933 464 933 464 932 464 932 463 932 463 932 463 931 463 931 462 931 462 931 462 930 462 930 462 929 461 929 461 929 461 928 461 928 461 928 461 928 461 927 461 927 461 927 461 927 461 927 461 926 461 926 462 926 462 925 462 925 463 925 463 924 463 924 463 924 463 924 463 923 464 923 464 923 464 922 464 922 464 922 464 922 464 922 464 922 464 921 465 921 465 921 465 921 465 921 466 921 466 920 466 920 466 920 466 919 466 919 466 919 467 919 467 918 467 918 467 918 467 918 468 918 468 917 468 917 468 917 469 917 469 916 469 916 469 916 469 915 469 915 469 915 469 915 469 915 469 914 469 914 469 914 469 910 470 909 470 908 470 908 470 908 471 908 471 907 471 907 471 907 471 906 471 906 472 906 472 906 472 905 473 904 474 904 474 904 474 904 475 904 475 903 475 903 475 903 475 903 475 903 475 903 475 903 475 902 474 902 473 902 473 902 473 902 473 901 472 901 472 901 471 900 471 900 471 900 471 900 471 900 470 899 470 899 470 899 469 899 469 899 468 899 466 898 465 898 465 898 465 898 464 898 464 898 464 898 464 897 464 897 463 896 463 896 463 896 463 896 462 896 462 896 462 895 461 895 461 895 460 895 460 895 459 895 459 894 459 894 459 894 459 894 458 894 458 893 458 892 458 892 458 892 458 892 457 891 457 891 457 891 457 891 456 891 456 891 456 890 455 890 454 890 454 889 454 889 453 889 453 889 453 889 453 888 453 888 453 888 453 888 453 888 453 887 453 887 453 887 453 887 454 886 454 886 454 886 454 885 455 884 456 884 456 884 457 883 457 883 457 883 457 883 457 882 457 882 457 882 457 881 458 881 457 881 457 880 457 876 457 875 457 874 457 874 457 874 457 873 457 873 457 873 457 873 457 872 457 872 457 872 457 872 457 872 457 871 457 871 458 871 458 870 458 870 458 869 458 869 458 869 458 868 458 868 458 868 458 868 458 867 458 867 459 867 459 867 459 866 459 866 459 866 460 865 460 865 460 865 460 864 460 863 460 861 460 860 460 860 460 860 460 859 460 859 460 859 460 858 460 858 460 858 460 858 461 858 461 857 461 857 462 857 462 856 463 856 463 856 463 856 463 856 463 855 464 855 464 855 464 854 464 854 464 854 464 854 465 853 465 853 466 852 466 852 466 852 466 852 466 851 466 851 467 851 467 850 467 850 467 850 467 850 467 849 467 849 468 849 468 849 468 848 468 848 468 848 468 848 468 848 467 847 467 847 466 846 466 846 466 846 466 846 466 845 465 844 465 844 465 844 465 844 465 843 465 843 464 843 464 843 464 843 463 843 463 842 462 842 462 842 462 842 461 842 461 842 461 841 461 841 461 841 460 841 460 840 460 839 460 839 460 839 460 839 459 838 459 838 459 838 459 838 458 838 458 838 457 837 457 837 457 837 456 837 456 837 456 837 456 836 456 836 456 836 456 835 456 835 456 834 456 834 456 833 456 833 456 833 456 832 455 832 455 832 455 832 455 831 455 830 455 828 451 828 449 828 449 827 448 827 447 827 446 828 445 828 445 829 445 830 444 830 443 830 442 831 441 831 440 830 439 830 437 829 436 829 433 830 431 830 430 831 430 831 428 830 426 830 424 830 423 830 423 830 423 830 423 831 423 831 422 831 422 831 422 832 422 832 421 832 421 832 421 833 421 833 421 833 421 833 421 834 421 834 420 834 421 834 421 835 421 835 421 835 421 836 421 836 421 836 421 836 421 836 422 837 422 837 423 837 423 837 423 837 423 838 423 838 423 838 423 839 423 839 423 840 424 840 424 840 424 841 424 841 424 841 424 842 424 842 424 842 424 842 425 843 425 843 425 844 426 844 426 844 427 845 427 845 427 845 427 845 427 846 427 846 427 846 427 846 427 846 427 847 427 847 427 847 427 847 426 847 426 847 426 848 426 848 426 848 426 848 426 849 426 849 426 849 426 851 426 851 426 851 426 852 426 852 426 852 426 853 426 853 426 853 426 853 426 854 426 854 425 855 425 855 424 855 424 855 424 856 424 856 424 856 424 857 424 857 424 857 424 857 424 858 424 859 424 859 424 859 424 860 423 860 423 860 423 860 423 860 423 861 423 861 423 861 422 861 422 861 422 861 421 861 421 861 421 862 420 862 420 862 420 862 419 863 419 863 419 863 419 863 418 864 418 864 418 864 418 864 418 865 417 865 417 865 417 866 417 867 417 867 417 867 417 867 417 868 416 868 416 868 416 868 416 868 415 868 415 868 415 868 414 869 414 869 412 869 411 869 411 869 410 869 410 869 410 870 409 870 409 870 409 870 408 870 408 871 408 871 407 871 407 871 407 871 407 871 406 871 406 871 405 872 405 872 405 872 405 872 404 872 404 873 404 873 404 873 403 873 403 874 403 874 403 874 402 874 402 874 402 874 401 874 401 874 399 874 399 874 398 874 398 874 398 875 397 875 397 875 397 875 397 875 397 875 397 875 397 875 396 876 396 876 396 876 396 876 395 876 395 876 395 876 395 877 394 877 394 877 394 877 393 877 393 877 393 877 392 878 392 878 392 878 392 878 392 878 392 879 391 879 391 879 391 879 391 880 391 880 391 880 391 880 391 881 391 881 391 881 391 882 391 883 391 884 391 884 391 884 391 884 391 885 391 885 391 885 391 886 391 886 391 886 391 887 391 887 391 887 391 887 391 888 391 888 390 888 390 888 390 888 390 888 389 888 389 888 388 888 388 888 388 888 387 888 387 889 387 889 386 889 386 889 386 889 386 890 386 890 385 891 385 891 385 891 384 891 384 891 384 892 384 892 383 892 383 892 382 892 382 892 381 892 381 893 381 893 381 893 380 893 380 894 380 894 380 894 380 895 380 898 380 899 380 899 380 900 380 900 380 900 380 900 380 901 380 901 380 901 380 901 380 901 381 901 381 902 381 902 381 902 381 902 381 902 381 903 381 903 381 903 381 904 381 904 381 904 381 904 381 904 380 905 380 905 380 905 380 905 379 905 379 905 379 905 378 905 378 906 378 906 377 906 376 906 376 906 376 906 375 906 375 906 375 907 375 907 375 907 374 907 374 908 374 908 374 908 374 908 373 909 373 909 373 909 373 909 373 909 372 909 372 910 372 910 372 910 371 910 371 910 371 910 370 910 370 910 369 910 369 911 366 911 365 911 363 916 364 917 364 917 364 918 364 918 364 918 364 918 364 919 364 919 364 919 364 920 364 920 364 920 364 921 363 921 363 922 362 922 362 922 362 923 362 923 362 923 363 923 364 924 364 924 364 924 365 924 365 925 366 925 367 925 367 926 367 926 367 926 368 926 368 927 368 927 369 927 369 927 369 927 370 927 370 927 370 928 370 928 370 928 370 928 370 929 370 929 370 929 370 931 369 931 369 932 369 932 369 933 369 933 368 933 368 933 368 934 368 934 368 934 367 935 367 935 366 935 366 936 366 936 366 936 366 936 366 936 366 936 366 936 367 937 367 937 367 937 368 937 368 937 368 937 368 938 368 938 368 938 369 939 369 939 369 940 369 941 369 941 369 942 369 942 369 942 369 942 370 943 370 943 370 943 370 943 370 943 371 944 371 944 371 944 371 944 372 944 372 944 372 944 373 944 374 944 374 944 374 944 375 945 375 945 375 945 375 945 376 945 376 946 376 946 377 946 377 946 377 946 377 947 377 947 378 947 378 947 378 947 378 948 378 948 377 948 377 948 377 949 377 949 377 949 377 949 377 950 377 950 377 951 377 951 377 951 377 952 377 952 377 952 377 953 377 953 377 954 376 954 376Z" fill-rule="evenodd"></path></g></g><g id="moveRchGraphicLayer_layer" style="display: block;"><g></g><path fill="none" fill-opacity="0" stroke="rgb(0, 0, 0)" stroke-opacity="1" stroke-width="5" stroke-linecap="butt" stroke-linejoin="miter" stroke-miterlimit="4" path="M 874,427 875,427 875,427 875,427 875,427 875,427 875,427 876,427 876,427 876,427 876,427 876,427 876,428 877,428 877,428 878,428 878,427 879,427 879,427 879,427 880,427 880,426 881,426 881,426 882,425 883,425 884,424 884,424 884,424 885,424 885,424 885,424 885,424 885,423 885,423 886,423 886,423 886,422 886,422 886,422 886,422 887,421 887,421 887,421 887,421 887,421 887,421 887,421 887,421 887,420 887,420 887,420 887,420 887,420 887,420 887,420 887,419 887,419 887,419 887,419 887,417 888,416 888,414 888,414 888,414 888,414 888,413 888,413 888,413 888,413 888,412 888,412 888,411 888,411 888,410 888,410 888,410 888,410 888,410 888,410 888,409 888,409 888,409 888,409 888,409 888,409 888,408 888,408 889,408 889,408 889,408 889,408 889,408 889,408 889,408 890,407 890,407 890,407 890,407 890,406 890,406 891,406 891,406 892,406 892,406 892,406 892,406 893,406 893,406 893,406 893,406 893,406 893,406 893,406 894,405 894,405 895,405 895,405 895,404 896,404 896,404 896,403 897,403 898,402 899,402 899,402 899,402 901,401 901,401 903,399 904,399 904,398 904,398 904,398 904,398 905,398 905,398 905,398 905,398 906,398 906,398 906,398 906,398 906,397 906,397 908,397 909,397 909,397 909,397 909,397 911,397 918,396 921,396 922,396 923,395 923,395 923,395 924,395 925,395 925,395 925,395 925,395 925,395 926,395 926,395 927,394 927,394 928,393 928,393 928,393 929,391 929,391 930,391 931,390 931,390 931,390 931,390 932,390 932,390 934,389 935,389 935,389 936,389 936,389 936,389 936,389 937,389 937,389 938,389 938,389 938,389 939,390 940,390 940,390 941,390 941,390 941,390 942,390 942,390 942,390 943,389 943,389 943,389 944,389 944,389 945,389 945,389 946,388 947,388 948,388 948,388 949,387 950,387 950,387 950,387 951,386 951,386 951,386 951,386 951,385 952,385 952,385 952,384 952,384 953,381 953,380 953,379 953,379 953,379 953,379 953,379 954,378 954,378 954,376" d="M 874 427 875 427 875 427 875 427 875 427 875 427 875 427 876 427 876 427 876 427 876 427 876 427 876 428 877 428 877 428 878 428 878 427 879 427 879 427 879 427 880 427 880 426 881 426 881 426 882 425 883 425 884 424 884 424 884 424 885 424 885 424 885 424 885 424 885 423 885 423 886 423 886 423 886 422 886 422 886 422 886 422 887 421 887 421 887 421 887 421 887 421 887 421 887 421 887 421 887 420 887 420 887 420 887 420 887 420 887 420 887 420 887 419 887 419 887 419 887 419 887 417 888 416 888 414 888 414 888 414 888 414 888 413 888 413 888 413 888 413 888 412 888 412 888 411 888 411 888 410 888 410 888 410 888 410 888 410 888 410 888 409 888 409 888 409 888 409 888 409 888 409 888 408 888 408 889 408 889 408 889 408 889 408 889 408 889 408 889 408 890 407 890 407 890 407 890 407 890 406 890 406 891 406 891 406 892 406 892 406 892 406 892 406 893 406 893 406 893 406 893 406 893 406 893 406 893 406 894 405 894 405 895 405 895 405 895 404 896 404 896 404 896 403 897 403 898 402 899 402 899 402 899 402 901 401 901 401 903 399 904 399 904 398 904 398 904 398 904 398 905 398 905 398 905 398 905 398 906 398 906 398 906 398 906 398 906 397 906 397 908 397 909 397 909 397 909 397 909 397 911 397 918 396 921 396 922 396 923 395 923 395 923 395 924 395 925 395 925 395 925 395 925 395 925 395 926 395 926 395 927 394 927 394 928 393 928 393 928 393 929 391 929 391 930 391 931 390 931 390 931 390 931 390 932 390 932 390 934 389 935 389 935 389 936 389 936 389 936 389 936 389 937 389 937 389 938 389 938 389 938 389 939 390 940 390 940 390 941 390 941 390 941 390 942 390 942 390 942 390 943 389 943 389 943 389 944 389 944 389 945 389 945 389 946 388 947 388 948 388 948 388 949 387 950 387 950 387 950 387 951 386 951 386 951 386 951 386 951 385 952 385 952 385 952 384 952 384 953 381 953 380 953 379 953 379 953 379 953 379 953 379 954 378 954 378 954 376" stroke-dasharray="none" dojoGfxStrokeStyle="solid"></path></g><g id="movePopGraphicLayer_layer" style="display: block;"><g></g></g><defs></defs><g id="_mapDiv__graphics_layer" style="display: block;"><g></g></g></svg>